<!--?xml version="1.0" standalone="no"?-->
              <svg id="sw-js-blob-svg" viewBox="0 0 100 100" xmlns="http://www.w3.org/2000/svg" version="1.1">
                    <defs> 
                        <linearGradient id="sw-gradient" x1="0" x2="1" y1="1" y2="0">
                            <stop id="stop1" stop-color="rgba(100.271, 0, 247.102, 1)" offset="0%"></stop>
                            <stop id="stop2" stop-color="rgba(119.168, 0, 251.656, 1)" offset="100%"></stop>
                        </linearGradient>
                    </defs>
                <path fill="url(#sw-gradient)" d="M20.4,-24.1C28.3,-22.3,37.8,-18.8,40.4,-12.7C42.9,-6.6,38.5,2.3,34.1,9.6C29.6,16.9,25.2,22.8,19.6,27C13.9,31.3,6.9,33.9,-0.7,34.9C-8.4,36,-16.8,35.3,-20.9,30.6C-25,25.8,-24.7,16.9,-26,9.3C-27.3,1.7,-30.1,-4.5,-29.9,-11.2C-29.8,-17.9,-26.7,-25.2,-21.2,-27.8C-15.7,-30.3,-7.9,-28.2,-0.8,-27C6.2,-25.9,12.5,-25.8,20.4,-24.1Z" width="100%" height="100%" transform="translate(50 50)" stroke-width="0" style="transition: all 0.3s ease 0s;"></path>
              </svg>